<?xml version="1.0" encoding="UTF-8" standalone="no"?>
<svg
   xmlns:dc="http://purl.org/dc/elements/1.1/"
   xmlns:cc="http://creativecommons.org/ns#"
   xmlns:rdf="http://www.w3.org/1999/02/22-rdf-syntax-ns#"
   xmlns:svg="http://www.w3.org/2000/svg"
   xmlns="http://www.w3.org/2000/svg"
   id="svg8"
   version="1.1"
   viewBox="0 0 405.99109 240.54451"
   height="240.54451mm"
   width="405.99109mm">
  <defs
     id="defs2" />
  <metadata
     id="metadata5">
    <rdf:RDF>
      <cc:Work
         rdf:about="">
        <dc:format>image/svg+xml</dc:format>
        <dc:type
           rdf:resource="http://purl.org/dc/dcmitype/StillImage" />
        <dc:title></dc:title>
      </cc:Work>
    </rdf:RDF>
  </metadata>
  <g
     transform="translate(140.70263,-23.002787)"
     id="layer1">
    <path
       id="path4761"
       d="m -60.249397,263.43464 c -2.929194,-0.26372 -5.809067,-0.90643 -8.044354,-1.79528 l -1.694352,-0.67376 0.823526,-0.73582 c 1.179012,-1.05345 3.152902,-1.55657 6.106908,-1.55657 1.385803,0 5.442083,-0.35534 9.013957,-0.78965 10.726013,-1.30419 11.68105,-1.33655 46.843272,-1.587 18.553906,-0.13216 34.389218,-0.30213 35.189582,-0.37772 0.800365,-0.0756 4.134115,-0.20578 7.408334,-0.2893 3.274218,-0.0835 9.644062,-0.32252 14.155208,-0.5311 4.511145,-0.20857 14.214739,-0.62233 21.563541,-0.91946 25.802801,-1.04325 39.535215,-1.73332 51.064585,-2.56607 6.50229,-0.46965 29.81507,-0.66468 33.82155,-0.28295 5.0686,0.48293 5.26267,1.56597 0.88408,4.93343 l -1.14541,0.8809 -2.97529,-0.33162 c -3.68334,-0.41054 -13.62628,-0.18276 -16.69431,0.38244 -1.16417,0.21447 -3.06917,0.57136 -4.23333,0.7931 -3.14971,0.59992 -9.75709,0.91303 -25.79688,1.22246 -19.89327,0.38377 -36.11821,1.00269 -55.430203,2.11447 -17.926285,1.032 -21.748691,1.11881 -58.3406236,1.32502 -20.4630544,0.11532 -38.3633444,0.32597 -39.8197904,0.46859 -4.119981,0.40346 -10.080535,0.55172 -12.7,0.31589 z"
       style="fill:#000000;stroke-width:0.26458332" />
    <path
       id="path4759"
       d="m 178.40476,257.44185 c -2.41535,-0.38279 -4.45293,-1.23552 -11.22447,-4.69742 -9.1736,-4.68996 -10.72076,-5.79784 -13.1114,-9.38886 -5.32326,-7.99616 -7.27265,-16.06038 -4.21873,-17.45185 0.91821,-0.41836 0.96486,-0.35333 1.68008,2.34241 4.44368,16.74898 14.31139,24.63815 30.80652,24.62961 14.98492,-0.008 29.2617,-6.15845 42.93555,-18.49738 8.56938,-7.73279 13.69507,-15.60466 15.53581,-23.85931 1.62271,-7.27702 1.87222,-9.15877 1.8592,-14.02292 -0.0153,-5.7127 -0.41622,-7.25847 -3.56664,-13.7507 -1.86888,-3.85133 -2.32868,-4.57861 -3.9548,-6.25565 -2.22888,-2.29864 -2.37398,-2.89292 -0.6486,-2.65643 3.90906,0.53579 7.23005,4.71737 8.96302,11.2857 4.70345,17.82696 -0.75988,35.9607 -15.87712,52.69911 -3.58261,3.96682 -7.7058,7.69307 -10.84902,9.80463 -5.92852,3.98266 -15.76039,7.78345 -23.9096,9.24293 -2.96194,0.53046 -12.34295,0.90527 -14.4198,0.57613 z"
       style="fill:#000000;stroke-width:0.26458332" />
    <path
       id="path4757"
       d="m -21.884815,252.84121 c -4.984977,-0.50822 -8.231118,-1.38592 -12.193492,-3.29688 -7.260563,-3.50161 -13.795596,-10.86326 -17.091045,-19.2529 l -1.142545,-2.90873 -4.233333,0.19645 c -2.328334,0.10804 -7.269427,0.23728 -10.980209,0.28719 -3.710781,0.0499 -6.941872,0.0963 -7.180206,0.10298 -0.238332,0.007 -1.012238,0.40726 -1.719792,0.89009 -1.906521,1.30097 -2.109279,1.33301 -2.497936,0.39471 -0.673016,-1.6248 -2.358319,-1.84605 -7.652065,-1.00458 -3.781793,0.60113 -19.050002,1.09364 -19.050002,0.6145 0,-0.45594 1.15269,-1.36555 2.51684,-1.9861 1.77496,-0.80743 6.593211,-0.96415 11.836033,-0.385 8.400576,0.92797 10.962774,0.82065 13.510325,-0.56591 2.47173,-1.34528 2.556606,-2.40883 0.235678,-2.95318 -1.996638,-0.46829 -25.445536,-0.15788 -28.495746,0.37722 -6.53051,1.14566 -7.11128,1.83598 -7.7911,9.26069 -0.29033,3.17077 -0.27016,3.22935 1.46916,4.26798 0.48178,0.2877 0.48325,0.33008 0.0381,1.09916 -1.16984,2.02104 0.44052,4.73062 4.33687,7.29713 3.38338,2.22864 5.83663,2.20792 12.001154,-0.10131 3.896542,-1.45966 7.540625,-2.09369 7.540625,-1.312 0,1.1017 -5.502233,4.46284 -9.514586,5.81215 -5.209183,1.7518 -12.513153,-0.59127 -15.273043,-4.89951 -2.62913,-4.10412 -2.76068,-4.15687 -6.13707,-2.46108 l -2.28051,1.14539 h -4.10104 c -2.72572,0 -4.5447,-0.12504 -5.42396,-0.37285 -10.48255,-2.95443 -12.78579,-15.59452 -4.63268,-25.42402 2.49512,-3.00816 2.41018,-4.18668 -0.52438,-7.27604 -2.45856,-2.58825 -3.19169,-6.56836 -2.07128,-11.2448 1.08111,-4.51239 6.67951,-12.78251 9.05698,-13.37921 2.45326,-0.61573 2.00756,0.98867 -1.84242,6.63234 -0.49636,0.7276 -1.2623,2.09682 -1.70209,3.04271 -0.4398,0.94588 -1.03731,2.1601 -1.32782,2.69825 -1.26283,2.33938 -0.51113,8.13472 1.43698,11.07851 1.09067,1.64812 1.74147,1.7612 3.73143,0.64835 2.07907,-1.16268 3.6807,-1.28045 4.12588,-0.30337 0.41733,0.91592 -0.07,1.6291 -1.66595,2.43781 -1.34809,0.68312 -1.34894,0.68437 -0.82196,1.21136 0.69486,0.69485 4.73409,2.3146 5.36233,2.15031 0.27026,-0.0707 1.10949,-0.6561 1.86494,-1.30095 3.1165,-2.66019 2.55396,1.01469 -0.62828,4.10435 l -1.19587,1.16107 -0.3998,-0.95685 c -0.47519,-1.13729 -1.53791,-1.84372 -3.87122,-2.57335 -3.35356,-1.04866 -3.66119,-1.01844 -5.35056,0.52555 -4.27625,3.90825 -5.78401,11.96717 -3.24363,17.33708 2.34859,4.96453 7.93576,7.59622 13.58208,6.39749 3.98392,-0.8458 4.5361,-1.64402 4.5367,-6.55822 5.3e-4,-4.10154 0.51366,-5.75338 2.36729,-7.62023 1.14086,-1.149 1.1929,-1.26906 1.20854,-2.7882 0.0483,-4.69045 2.78043,-5.63333 12.69646,-4.3816 4.231568,0.53416 5.104029,0.55505 14.733756,0.35273 5.629714,-0.11827 10.326061,-0.30526 10.43632,-0.41552 0.324279,-0.32428 -0.40019,-3.35721 -1.23177,-5.15671 -0.961117,-2.07981 -3.354189,-4.64731 -4.852683,-5.20639 -1.010478,-0.37701 -1.214676,-0.3701 -2.675879,0.0905 -0.870059,0.27427 -1.72873,0.44233 -1.908159,0.37348 -0.488072,-0.18729 -0.677379,-1.04533 -0.361038,-1.63642 0.731907,-1.36758 0.08506,-1.73414 -4.009442,-2.2721 -3.28095,-0.43108 -4.352248,-0.90404 -3.911812,-1.727 0.690023,-1.28932 2.201394,-1.36282 5.379529,-0.26162 2.558021,0.88634 2.789198,0.91743 3.708088,0.49876 1.777624,-0.80994 2.309582,-6.38363 0.885947,-9.28268 -0.948061,-1.93061 -2.773013,-3.72447 -4.803114,-4.72128 -2.828671,-1.38893 -8.030977,-2.14014 -7.707878,-1.11303 1.377857,4.38011 0.531714,9.46455 -1.875663,11.27079 -0.358474,0.26897 -0.708525,0.43227 -0.777888,0.36291 -0.06937,-0.0694 0.05784,-1.61854 0.282678,-3.44261 1.000085,-8.11349 0.144743,-9.61933 -4.053322,-7.13586 -2.32254,1.37396 -3.27665,2.3846 -4.53543,4.80413 -0.59808,1.14958 -1.30828,2.29003 -1.57823,2.53433 -0.45952,0.41586 -0.46498,0.51998 -0.0857,1.63319 0.64934,1.90571 0.36341,3.96888 -0.67912,4.90038 -1.06672,0.95312 -1.41534,0.94139 -2.27175,-0.0764 -2.26706,-2.69424 -1.93099,-6.70602 0.85104,-10.15931 2.4418,-3.03097 6.03092,-5.45256 9.65242,-6.51252 1.12779,-0.33008 2.050526,-0.68191 2.050526,-0.78183 0,-0.57628 -1.879176,-2.83248 -2.776526,-3.33359 -2.28755,-1.27744 -4.60567,-1.08618 -10.93823,0.90247 -3.77638,1.18591 -8.01,1.71681 -8.64502,1.08408 -0.70864,-0.70609 1.2412,-3.53036 3.08765,-4.47235 5.16034,-2.63261 16.15732,-1.09715 20.402203,2.84866 1.640573,1.52499 2.578143,1.89208 6.397887,2.50504 3.884406,0.62333 5.809887,1.43959 7.396139,3.13543 3.28192,3.50864 4.541377,8.9561 3.106298,13.43552 -0.7458,2.32791 -0.616339,2.64079 1.760524,4.25489 4.0084,2.72205 6.667407,7.29578 6.667407,11.46854 v 1.26733 h 9.136623 c 11.652965,0 11.500363,0.052 11.501287,-3.91983 7.94e-4,-2.9108 1.330671,-4.8257 2.42493,-3.49136 0.443997,0.54141 0.512646,0.89452 0.385784,1.98438 -0.539819,4.63758 -0.556988,4.27299 0.225361,4.78561 1.006898,0.65974 3.143986,0.77158 7.078475,0.37042 3.018985,-0.30782 3.723121,-0.29532 6.448821,0.11441 3.139266,0.47191 4.797351,0.40107 5.824276,-0.24885 0.521009,-0.32973 0.569626,-0.64523 0.699378,-4.53864 0.401762,-12.05531 6.353,-20.65144 18.643205,-26.92875 3.5652819,-1.82099 3.5453693,-1.77554 3.8153951,-8.70832 0.1752653,-4.49988 0.5384324,-9.29202 0.8446215,-11.14511 0.071795,-0.43451 -2.7189377,-0.16497 -4.5864916,0.44298 -1.692928,0.55111 -7.956322,3.18013 -8.731249,3.66489 -0.218282,0.13655 -1.468438,0.79737 -2.778125,1.46848 -3.300452,1.69123 -6.161918,3.80772 -8.80877,6.51542 -1.249093,1.2778 -2.674356,2.47203 -3.203133,2.6839 -1.471277,0.5895 -3.615794,3.07195 -6.756768,7.8215 -5.09896,7.71028 -6.171335,10.12069 -6.514618,14.64316 -0.463553,6.10693 -1.318938,6.37847 -8.170196,2.59366 -2.207485,-1.21947 -4.56751,-2.25398 -7.027764,-3.0806 -2.037292,-0.68451 -3.788939,-1.31782 -3.89255,-1.40736 -0.252275,-0.21801 0.420322,-3.35673 1.280387,-5.97502 0.382818,-1.16541 1.846062,-4.38112 3.251653,-7.14601 3.960995,-7.79155 4.260984,-9.26107 3.163715,-15.49763 -0.880668,-5.00546 -0.909666,-11.93925 -0.05764,-13.78266 0.694595,-1.50281 1.568056,-2.11449 3.250224,-2.27612 2.594281,-0.24928 3.053437,1.12436 2.809602,8.40537 -0.196458,5.86627 -0.125659,6.17811 1.214051,5.34733 1.241404,-0.76981 2.198973,-1.84435 4.794171,-5.3798 2.321557,-3.16266 3.345524,-4.15113 5.028768,-4.85443 0.533583,-0.22295 1.823853,-0.95761 2.867271,-1.6326 5.450546,-3.52594 19.013093,-8.87694 28.74677,-11.34181 6.1259504,-1.55129 7.4297932,-1.66087 15.4092031,-1.29501 13.1527999,0.60307 21.0970599,2.59672 24.9803859,6.26895 1.539563,1.45587 1.884595,2.30403 0.937284,2.30403 -0.297365,0 -2.589318,-0.64532 -5.093229,-1.43405 -9.828697,-3.09603 -13.700723,-3.82801 -21.3562587,-4.03726 -9.6034408,-0.26248 -13.9246342,0.48787 -23.9595023,4.16045 -0.737153,0.26979 -2.52309,0.8005 -3.96875,1.17936 -4.708945,1.23407 -7.61575,2.91689 -14.667012,8.4911 -1.964531,1.55302 -4.633672,3.53864 -5.931421,4.41249 -2.923257,1.96841 -6.683396,5.52805 -7.330234,6.93937 -0.56125,1.22458 -0.616617,2.86112 -0.201215,5.94778 0.339304,2.52122 0.04792,4.03629 -0.870837,4.52799 -1.225338,0.65578 -2.067083,0.73805 -3.289562,0.32152 -1.663543,-0.56683 -2.437889,-0.01 -3.050571,2.19561 -0.238265,0.85755 -1.115976,3.48726 -1.950461,5.84381 -2.131261,6.01856 -1.848244,6.90801 2.797254,8.79104 1.227741,0.49766 2.91347,1.2418 3.746064,1.65365 3.068526,1.51786 3.718692,0.88385 5.103434,-4.97662 0.807249,-3.41642 2.471504,-6.73879 5.877975,-11.73424 6.475558,-9.49615 11.041266,-14.15242 17.53499,-17.8828 1.236927,-0.71056 2.30849,-1.35558 2.38125,-1.43338 0.07276,-0.0778 1.441979,-0.54643 3.042708,-1.04141 1.600729,-0.49498 3.973267,-1.3113 5.272305,-1.81403 8.62984,-3.33982 19.4872814,-4.47529 27.403736,-2.86588 12.581215,2.55775 19.189591,5.48314 20.110302,8.9024 0.260463,0.96729 0.140213,1.84477 -0.25281,1.84477 -0.90238,0 -2.993059,-1.00482 -5.13842,-2.46961 -2.013958,-1.37508 -3.127348,-1.92747 -5.139274,-2.54977 -8.237929,-2.54803 -19.5425083,-3.87321 -21.37979878,-2.50625 -1.10008456,0.81848 -1.64683012,2.12345 -1.93363312,4.61521 -0.1423723,1.23693 -0.5842477,3.55865 -0.9819508,5.15938 -0.7974991,3.2099 -1.0077979,6.89814 -0.432861,7.59157 0.2921662,0.35238 0.4878441,0.34298 1.7197917,-0.0826 2.8119836,-0.97142 5.6299416,-0.52127 11.849079,1.89283 6.260091,2.42999 6.827339,2.33525 12.559783,-2.09784 1.891771,-1.46297 4.808802,-3.5818 6.482292,-4.70852 1.673489,-1.12671 3.872841,-2.80777 4.887446,-3.73569 2.083578,-1.90554 3.444997,-2.6962 4.642528,-2.6962 h 0.819806 l -0.869765,1.65365 c -1.972059,3.74939 -6.207051,7.21256 -16.122623,13.18429 -3.404325,2.05028 -7.975621,5.05035 -10.158433,6.66681 -7.5227157,5.57088 -13.76291342,10.13591 -15.4733441,11.31956 -2.2851136,1.58133 -2.9650319,3.1202 -1.5737072,3.56179 0.7067391,0.22431 0.7495063,0.1957 10.6585118,-7.13026 11.3050605,-8.3581 16.9834235,-12.34418 22.2275635,-15.60323 9.010004,-5.59941 12.874839,-9.30852 12.865462,-12.34708 -0.0016,-0.49976 -0.492488,-2.27787 -1.090988,-3.95136 -1.946754,-5.44338 -2.346746,-7.03295 -2.320698,-9.22247 0.01654,-1.38986 -0.138739,-2.4809 -0.496493,-3.48863 -0.286303,-0.80647 -0.663572,-2.31422 -0.838375,-3.35057 -0.426997,-2.53154 -0.719891,-2.7636 -3.786708,-3.00027 -4.068096,-0.31393 -5.967743,-1.03133 -8.159387,-3.08135 -2.712437,-2.53717 -4.001818,-5.60322 -4.039963,-9.60671 -0.07858,-8.24819 4.242565,-12.30109 13.723958,-12.87199 5.781043,-0.34809 10.515431,0.87403 16.755599,4.32525 6.696745,3.70374 11.615637,5.86056 15.803888,6.92962 2.110663,0.53876 6.433605,1.13954 6.757807,0.93917 0.0924,-0.0571 -0.05578,-1.02925 -0.329289,-2.16033 -1.422903,-5.8844 -1.783284,-12.13371 -0.912001,-15.81485 1.216909,-5.14138 3.107659,-8.35001 7.736486,-13.12895 4.095353,-4.22816 2.935517,-5.20639 -8.903116,-7.509055 -5.49756,-1.0693 -8.202551,-2.013537 -8.201093,-2.862775 0.0016,-0.851194 0.931928,-2.226821 1.914821,-2.83092 1.481524,-0.910564 2.811002,-1.123678 6.418564,-1.028886 9.759823,0.256445 10.719768,0.19253 15.742708,-1.048147 3.371099,-0.83267 5.385673,-1.18152 7.408333,-1.282856 1.527969,-0.07655 2.996565,-0.253172 3.263546,-0.392491 0.755761,-0.394377 1.233937,-1.876509 1.238964,-3.840234 0.01307,-5.109498 1.828414,-8.492442 6.070484,-11.312562 2.57143,-1.709483 4.32445,-2.417392 8.5788,-3.464298 11.49063,-2.827602 19.41122,-3.157606 33.89716,-1.41229 1.30969,0.157797 4.47911,0.372456 7.04313,0.477025 4.25085,0.173358 4.78192,0.249526 6.02329,0.86387 l 1.36139,0.673748 -0.20243,-1.350589 c -0.68303,-4.55666 0,-8.047771 1.92095,-9.806541 l 0.9375,-0.858724 -1.02082,-0.898914 c -0.56144,-0.4944 -1.57093,-1.219385 -2.24327,-1.611074 -1.59295,-0.927994 -2.12359,-1.975395 -2.12359,-4.191606 0,-4.174702 2.66729,-7.437966 8.12003,-9.934313 5.51582,-2.525224 15.6986,-1.699261 20.36292,1.651708 l 1.34183,0.964019 0.46302,-0.635698 c 7.93327,-10.891944 11.78626,-14.956745 17.00856,-17.943544 8.49619,-4.859267 15.52426,-4.152777 28.28991,2.84382 l 3.93866,2.158707 1.56173,-1.704352 c 7.45387,-8.134584 23.64449,-0.703377 24.48695,11.239089 0.49125,6.96347 -3.478,12.874883 -9.18747,13.682918 l -1.45521,0.205949 -0.16592,2.907525 c -0.3406,5.968746 -1.20391,7.937063 -5.19906,11.853921 -4.77425,4.68068 -5.03568,5.434499 -3.36627,9.706729 1.65068,4.224292 1.04937,5.507244 -3.09218,6.59742 -3.5873,0.944279 -3.93756,1.090737 -4.25035,1.77724 -0.23672,0.519536 -0.20537,0.802005 0.15716,1.415698 0.54089,0.915657 0.31216,1.113103 -1.84308,1.590956 -0.76904,0.170508 -2.2523,0.911826 -3.67155,1.834989 -3.49316,2.272157 -4.38851,2.380837 -4.88508,0.59296 -0.90987,-3.276031 0.55293,-4.655066 5.75469,-5.425112 1.34228,-0.198707 2.48012,-0.410258 2.52852,-0.470114 0.0484,-0.05986 0.47008,-0.674222 0.9371,-1.365256 0.9738,-1.440952 1.67322,-1.865558 3.79245,-2.302293 0.8322,-0.171503 1.7847,-0.532545 2.11667,-0.802317 l 0.60357,-0.490495 -0.7334,-2.865901 c -1.19756,-4.679664 -1.02518,-5.311238 2.58786,-9.480484 2.92267,-3.37263 4.50776,-5.762733 5.4768,-8.258296 1.77723,-4.576972 1.27349,-5.922484 -3.85625,-10.299732 -3.22884,-2.755202 -4.40105,-3.990277 -4.40105,-4.637096 0,-0.756293 1.89754,-0.608101 4.23333,0.33061 2.61205,1.049729 4.24794,1.221195 6.23755,0.653788 3.24922,-0.926632 5.35416,-2.959865 6.35352,-6.13714 0.51544,-1.638628 1.24063,-1.883589 1.3793,-0.465896 0.095,0.971768 -1.55776,3.579654 -4.31392,6.806773 -1.95837,2.292991 -2.01555,2.724624 -0.23593,1.78054 4.69426,-2.4903 8.12024,-11.657649 4.79385,-12.827483 -1.01235,-0.356025 -1.23304,-0.02818 -1.42465,2.116441 -0.19722,2.207607 -1.10352,3.26552 -4.51609,5.271614 -4.85942,2.856632 -8.64394,2.968212 -11.82204,0.34855 -0.94567,-0.779492 -0.98186,-0.859866 -0.53448,-1.186994 0.62595,-0.457707 2.87097,-0.438492 5.62237,0.04812 2.53595,0.448503 3.64278,0.290087 5.47489,-0.783595 4.11125,-2.409362 4.40002,-7.820131 0.59425,-11.135546 -2.07388,-1.806701 -3.66326,-2.370493 -6.68258,-2.370493 -3.62479,0 -5.33995,1.00061 -7.38732,4.309757 -1.33644,2.160054 -2.53201,2.092696 -6.1005,-0.343702 -2.78186,-1.899328 -4.13697,-2.631676 -5.35657,-2.894882 -0.46903,-0.101217 -1.22431,-0.531129 -1.67846,-0.95536 -2.61866,-2.446196 -11.2767,-3.037054 -15.50747,-1.058291 -5.36138,2.507548 -8.35009,5.611912 -14.91726,15.494562 -4.88072,7.344778 -7.73274,10.450611 -11.09721,12.084854 -1.90233,0.924029 -4.68212,1.709762 -4.98329,1.408579 -0.38248,-0.382466 1.27722,-2.814762 3.4899,-5.114499 3.38008,-3.513045 3.76365,-4.203187 3.18056,-5.722731 -0.51279,-1.336279 -4.29252,-2.12597 -9.21046,-1.924318 -12.17208,0.499095 -17.1989,5.435592 -11.3251,11.121636 l 1.03881,1.005602 2.68714,-0.547605 c 2.99159,-0.609648 4.08485,-0.519171 3.95798,0.327557 -0.0914,0.609639 -0.068,0.594894 -3.18434,2.013267 -2.90738,1.323277 -5.55374,3.051802 -6.10748,3.989232 -2.43338,4.119348 1.61321,9.102529 7.35724,9.060121 2.66991,-0.01971 3.26747,0.338712 4.67717,2.80538 0.89527,1.566551 3.59481,4.550217 4.11692,4.550217 0.4069,0 0.0946,-0.984369 -1.08908,-3.432119 -0.52578,-1.0873 -0.9548,-2.218394 -0.95337,-2.513542 0.004,-0.881473 1.19946,-3.179448 2.27001,-4.364424 0.99711,-1.103675 3.33526,-2.514693 3.64829,-2.201653 0.61868,0.61868 -0.22672,2.357895 -2.11667,4.354557 -2.3047,2.434839 -2.41641,3.990906 -0.45135,6.286632 2.66814,3.117134 9.56543,4.305184 11.71432,2.017782 l 0.59296,-0.631161 -0.62018,-0.33246 c -0.3411,-0.182853 -1.72974,-0.607507 -3.08589,-0.943678 -3.85853,-0.956482 -4.98081,-2.158675 -4.90236,-5.251392 0.0705,-2.780763 1.36697,-6.733379 2.32971,-7.102814 1.36408,-0.523449 1.58583,1.25108 0.54044,4.324689 -1.25736,3.696769 -0.58238,5.290629 2.63686,6.226484 3.49615,1.016355 5.0591,0.10668 7.32846,-4.265311 0.82428,-1.587968 1.73849,-3.013016 2.03163,-3.166771 0.38018,-0.19943 0.46368,-0.38902 0.29133,-0.661458 -0.50951,-0.805292 -0.2607,-3.847442 0.54237,-6.631591 1.01888,-3.532312 1.00713,-3.899096 -0.16976,-5.3008 -0.53081,-0.63223 -1.30463,-1.863887 -1.71958,-2.737012 -1.10286,-2.320644 -1.00909,-3.554571 0.3224,-4.24312 1.32521,-0.685295 1.43629,-0.56324 1.43629,1.578311 0,4.475276 3.62844,5.695042 12.30312,4.135927 1.67349,-0.300778 4.47146,-0.801137 6.21771,-1.111906 5.73625,-1.020845 8.89653,-0.741035 10.03811,0.888772 0.74406,1.062313 0.56022,1.131745 -3.09447,1.168678 -3.79386,0.03834 -5.95206,0.478179 -12.73256,2.594859 -2.56165,0.799674 -3.10441,1.056862 -3.00091,1.421947 0.32036,1.129895 0.30305,1.22999 -0.22672,1.311762 -0.30245,0.04668 -1.5463,-0.396975 -2.76413,-0.985906 -1.21785,-0.588931 -2.41284,-1.070782 -2.65557,-1.070782 -1.12876,0 -2.65515,2.029875 -3.03038,4.029956 -0.29342,1.564145 0.24088,2.569308 2.62814,4.944152 1.22388,1.217547 2.16741,2.364465 2.09671,2.548708 -0.45757,1.192411 -3.39465,0.975894 -4.71837,-0.347832 l -0.66381,-0.66381 v 0.781809 c 0,1.621435 -0.82558,3.504337 -2.6629,6.073285 -1.02658,1.435376 -2.23803,3.303435 -2.69211,4.151239 -1.57895,2.948144 -4.09802,4.362773 -8.20994,4.61046 l -2.32016,0.139758 0.17077,0.955199 c 0.39441,2.206384 1.46521,5.868289 2.32952,7.96666 l 0.92636,2.248958 1.70458,0.07763 c 2.88676,0.131458 6.07401,-0.537133 9.14315,-1.917964 5.79723,-2.608229 6.92962,-2.591859 9.98331,0.144319 6.35601,5.69517 8.57973,6.655032 13.43705,5.800133 2.15561,-0.379392 2.43541,-0.548299 2.66883,-1.611056 0.40941,-1.864059 1.97987,-1.427224 1.97987,0.550719 0,2.129446 -2.24798,3.186716 -7.17102,3.372696 -4.69107,0.17721 -5.41134,-0.0718 -9.10085,-3.146853 -4.72377,-3.936992 -5.51601,-4.152487 -10.6176,-2.888067 -2.79463,0.69265 -5.72698,1.251458 -11.54125,2.199386 l -1.78594,0.291169 v 1.258702 c 0,2.928963 0.84487,3.379783 5.07111,2.705933 3.20405,-0.51086 4.18931,-0.32999 4.18931,0.76908 0,1.40568 -3.2438,4.63103 -6.22983,6.19442 -1.63335,0.85517 -1.62158,0.94502 0.38695,2.95355 2.59535,2.59536 2.72402,3.96692 0.65387,6.9694 -1.07183,1.55452 -1.50813,1.94774 -2.89619,2.61019 -2.27078,1.08375 -2.37979,1.26439 -2.29163,3.79727 0.0902,2.59139 -0.21648,3.4518 -1.34943,3.78585 -0.76343,0.2251 -0.83616,0.33773 -0.78425,1.21477 0.0796,1.34571 1.13874,3.27985 2.56733,4.68852 0.66411,0.65484 2.36932,2.48073 3.78939,4.05752 2.83496,3.14788 5.1348,5.04278 6.6172,5.45209 0.52912,0.1461 1.01008,0.21759 1.06879,0.15887 0.0587,-0.0587 -0.68093,-1.23653 -1.64365,-2.61737 -2.63252,-3.77581 -3.19775,-5.14374 -3.1869,-7.71257 0.008,-1.88689 0.11422,-2.33396 0.97861,-4.11828 1.7662,-3.64587 4.17224,-5.26977 10.7864,-7.28004 5.4161,-1.64613 8.15613,-1.26097 10.21538,1.43596 1.7123,2.24251 2.0742,3.65517 2.07782,8.11027 0.004,4.42378 -0.56337,6.76649 -2.29187,9.4703 -0.7829,1.22465 -0.79364,1.28139 -0.31282,1.65175 0.5892,0.45383 2.66404,1.07984 4.33441,1.30775 0.65484,0.0893 1.76326,0.28957 2.46316,0.44494 1.39721,0.31016 8.57467,3.86768 9.83996,4.87719 0.43657,0.34831 1.86531,1.44989 3.175,2.44796 4.20558,3.20493 6.21771,5.83266 6.21771,8.12001 0,2.95504 -2.02576,8.71112 -3.67369,10.43864 -1.89214,1.98351 -3.83812,1.88514 -7.43881,-0.37604 -4.2849,-2.69086 -6.42932,-3.48399 -11.45701,-4.23743 -3.02366,-0.45313 -16.94315,-1.10751 -17.98672,-0.84559 -0.99886,0.2507 -1.09257,0.91905 -0.74054,5.2812 0.16737,2.07423 0.24032,4.42197 0.16208,5.2172 -0.19307,1.96261 -0.73853,20.12554 -0.70123,23.35013 0.0345,2.98316 0.56576,5.60809 1.65127,8.159 1.75114,4.11514 0.33142,7.37703 -4.07075,9.35267 -3.99169,1.79141 -7.93742,0.60831 -9.69269,-2.90628 -0.93916,-1.88051 -0.83839,-3.45214 0.3723,-5.80556 l 0.9894,-1.92333 -0.66405,-1.69038 c -0.36523,-0.92971 -0.86566,-2.64287 -1.11204,-3.80704 -0.54853,-2.59178 -1.36086,-5.35325 -1.8093,-6.15053 -0.50805,-0.90323 -1.1448,-0.30438 -3.63072,3.41458 -7.0839,10.59765 -8.55996,19.18138 -4.72805,27.49483 1.65444,3.58935 3.27147,4.5007 8.30659,4.68155 12.07254,0.43362 21.33037,-5.94158 28.08068,-19.33714 7.85088,-15.57959 3.47903,-26.82917 -10.45202,-26.8951 -1.94876,-0.009 -1.95016,-0.01 -1.56453,-0.59052 1.49971,-2.2587 6.20149,-2.27075 10.74597,-0.0275 4.7203,2.33 8.14829,8.2926 8.45206,14.70137 0.59047,12.45748 -5.36625,22.9287 -16.97432,29.83893 -10.93731,6.51094 -22.21711,6.49894 -28.77065,-0.0306 -7.46848,-7.44111 -5.77372,-20.44158 4.27431,-32.78838 5.13197,-6.30604 4.82873,-5.19353 3.44565,-12.64109 -0.99153,-5.33912 -1.71956,-8.46479 -2.37012,-10.17589 -0.3057,-0.8041 -0.81899,-0.74755 -2.94436,0.32435 -7.02646,3.54369 -15.22833,14.4294 -23.87838,31.69197 l -2.15696,4.30455 -0.17899,3.63295 c -0.26429,5.36513 -0.73361,7.14894 -2.25661,8.57705 -1.44552,1.3555 -2.69652,1.51735 -7.50324,0.97077 -3.82225,-0.43463 -15.56848,0.51664 -16.95415,1.37304 -0.29684,0.18345 -0.25763,0.67038 0.22709,2.81963 0.70678,3.13405 0.72014,3.5817 0.12285,4.11265 -1.09533,0.97364 -2.3213,1.07333 -14.6273,1.18933 -14.566678,0.13732 -13.271765,0.49871 -13.479262,-3.76187 -0.207396,-4.25857 -1.143092,-4.57584 -6.339205,-2.14946 -5.334021,2.49078 -7.030217,2.77336 -7.74161,1.28971 -0.712171,-1.48526 -1.600824,-1.59928 -8.546478,-1.09652 -3.246432,0.23499 -4.495879,0.23341 -5.359527,-0.007 -1.404503,-0.39061 -4.055303,-2.81086 -5.356098,-4.89025 l -0.926041,-1.48033 -1.852084,-0.004 c -1.018645,-0.002 -2.864114,-0.1811 -4.101041,-0.39731 -1.236927,-0.21621 -4.034896,-0.57275 -6.217708,-0.79232 -9.514502,-0.95704 -10.87097,-0.37218 -14.934832,6.43937 -3.427897,5.74559 -5.538647,8.31916 -8.652013,10.54911 -1.433798,1.02696 -4.154717,3.07442 -6.046488,4.54992 -9.790742,7.63637 -17.467651,11.0649 -28.1808442,12.58565 -3.6370498,0.51629 -11.8931048,0.72764 -15.2108218,0.3894 z"
       style="fill:#000000;stroke-width:0.26458332" />
    <path
       id="path4755"
       d="m -11.301482,248.59472 c 15.1709703,-1.83115 33.883428,-12.36899 42.26725,-23.80262 1.388722,-1.8939 4.167124,-6.49359 4.167124,-6.89874 0,-0.4788 -7.88856,-0.98034 -16.465774,-1.04686 l -4.9564,-0.0384 -1.3936,0.89016 c -0.766479,0.48959 -3.1292482,2.55714 -5.2505926,4.59456 -2.2335146,2.14514 -4.549976,4.11035 -5.5033518,4.66885 -3.8334102,2.24565 -10.9333424,3.84172 -16.0396546,3.60572 -2.347834,-0.1085 -3.107733,-0.28336 -6.746875,-1.55248 l -4.101042,-1.4302 -11.475759,0.0546 c -6.311667,0.03 -11.531666,0.11049 -11.599997,0.17882 -0.209767,0.20977 0.720124,3.10261 1.636328,5.09052 5.212734,11.3102 19.469592,17.61647 35.462344,15.68613 z"
       style="fill:#ffffff;stroke-width:0.26458332" />
    <path
       id="path4753"
       d="m -133.59954,238.66954 c 0.0879,-0.088 -0.46309,-0.77256 -1.22455,-1.52135 -1.53331,-1.5078 -2.37126,-3.07667 -2.9358,-5.49663 -0.44462,-1.90592 -0.5894,-2.11437 -0.82276,-1.18457 -0.19553,0.77905 0.4591,2.63806 1.94714,5.52941 1.12455,2.18508 2.40054,3.30857 3.03597,2.67314 z"
       style="fill:#ffffff;stroke-width:0.26458332" />
    <path
       id="path4751"
       d="m -9.9353638,227.47426 c 6.1485647,-1.2689 16.9478136,-6.72524 18.5992396,-9.3973 1.1933157,-1.93083 0.6472422,-2.20309 -4.4872327,-2.23729 -4.08092797,-0.0272 -4.53916513,0.11497 -8.2994207,2.57455 -2.9720037,1.94399 -3.509719,2.04381 -8.0421874,1.49298 -9.64524,-1.17217 -14.266005,0.33526 -11.82498,3.85766 2.464564,3.55637 7.875764,4.98453 14.0545812,3.7094 z"
       style="fill:#ffffff;stroke-width:0.26458332" />
    <path
       id="path4749"
       d="m -52.410129,225.06178 c 1.012753,-3.38027 -4.010895,-4.61042 -14.586143,-3.57173 -7.240944,0.7112 -6.795669,0.60558 -7.240508,1.71735 -0.215077,0.53752 -0.473133,1.41488 -0.573466,1.94969 l -0.182417,0.97237 h 11.131325 11.131325 z"
       style="fill:#ffffff;stroke-width:0.26458332" />
    <path
       id="path4747"
       d="m -29.863473,225.95696 c 2.060726,-0.12608 2.819283,-0.26579 2.819283,-0.51924 0,-0.80991 -1.110405,-3.21609 -1.865876,-4.04322 l -0.81788,-0.89547 -6.529477,0.19118 c -8.572023,0.25098 -13.741836,0.52488 -13.956365,0.73941 -0.303586,0.30359 0.45658,2.86609 1.057452,3.56464 0.336613,0.39134 1.015029,0.75671 1.621956,0.87353 1.321298,0.25433 13.931691,0.31796 17.670907,0.0892 z"
       style="fill:#ffffff;stroke-width:0.26458332" />
    <path
       id="path4745"
       d="m 78.538748,222.91442 c 1.88914,-0.21482 2.722596,-0.41828 2.8269,-0.69009 0.122185,-0.31841 -0.343709,-2.10699 -0.889161,-3.41351 -0.08451,-0.20242 0.936858,-0.55197 2.994808,-1.02495 1.71768,-0.39478 4.968523,-1.28273 7.224096,-1.97321 2.255573,-0.6905 5.529792,-1.58442 7.276041,-1.98651 6.042228,-1.39128 12.700418,-3.98962 14.115808,-5.50866 l 0.62206,-0.66761 -0.75784,-0.39189 c -0.41681,-0.21554 -1.35158,-0.48041 -2.07726,-0.58859 -0.72569,-0.10818 -1.67662,-0.46215 -2.11318,-0.78661 -1.93366,-1.4371 -5.40769,-1.57189 -8.150414,-0.31622 -0.828784,0.37942 -1.506882,0.75138 -1.506882,0.82655 0,0.0752 0.238125,1.15794 0.529167,2.40614 0.668843,2.86848 0.684548,2.71813 -0.330729,3.16605 -5.296075,2.33653 -7.381997,2.91944 -8.301972,2.32 -0.164081,-0.10691 -0.380531,-0.73017 -0.481004,-1.38501 -0.100473,-0.65485 -0.559962,-2.32172 -1.021085,-3.70417 -0.655069,-1.9639 -0.8376,-2.96056 -0.834729,-4.55776 l 0.0037,-2.04422 -1.065517,0.15768 c -2.690368,0.39813 -4.217326,1.44473 -7.211441,4.94282 -4.127188,4.82189 -5.005602,5.35182 -8.803034,5.31076 -1.737577,-0.0188 -3.126144,-0.20604 -4.497916,-0.60655 -4.46826,-1.30459 -6.216941,-1.4789 -11.184893,-1.11492 -3.535272,0.25901 -6.961862,0.27141 -15.27344,0.0553 -17.845868,-0.46406 -20.625398,-0.57545 -24.341666,-0.97549 -10.1695197,-1.09471 -18.5208331,-0.58807 -18.5208331,1.12357 0,1.66526 7.3809541,2.49389 17.4624991,1.96043 6.744264,-0.35686 12.211603,-0.15903 25.003125,0.90471 7.518654,0.62526 13.580784,1.00668 21.349956,1.34333 l 3.887457,0.16844 0.180303,0.83315 c 1.125492,5.20066 5.520838,7.1684 13.887098,6.21706 z"
       style="fill:#ffffff;stroke-width:0.26458332" />
    <path
       id="path4743"
       d="m 70.454766,221.38142 c -2.705843,-1.10748 -1.70113,-6.36446 1.216375,-6.36446 h 0.98508 l 0.184513,2.21506 c 0.314198,3.77189 -0.375933,4.97209 -2.385968,4.1494 z"
       style="fill:#000000;stroke-width:0.26458332" />
    <path
       id="path4741"
       d="m 109.34852,222.41519 c 2.76489,-0.14958 7.82505,-0.57146 11.24479,-0.93751 3.41974,-0.36606 7.88458,-0.84408 9.92187,-1.06228 2.03729,-0.21819 6.26401,-0.49674 9.39271,-0.61899 3.1287,-0.12226 5.89238,-0.30614 6.14148,-0.40864 0.59055,-0.24296 0.67802,-0.56497 1.00026,-3.68196 0.57449,-5.55709 6.37376,-19.0387 11.50697,-26.7503 4.95154,-7.43872 11.2554,-13.39958 18.93996,-17.90944 2.55643,-1.5003 2.83448,-1.73685 2.7401,-2.33119 -0.0578,-0.3638 -0.40344,-2.98318 -0.76819,-5.82083 -1.0999,-8.55711 -1.17047,-8.96687 -1.73493,-10.07329 -0.62635,-1.22774 -0.57914,-1.22996 -3.64148,0.17139 -5.08273,2.32591 -16.80927,11.68217 -19.91067,15.88612 -9.98328,13.53244 -15.12181,25.07491 -16.53159,37.13433 -0.51728,4.4249 -0.85259,6.03176 -1.54601,7.409 -0.80465,1.5982 -1.40785,1.92466 -1.96998,1.0662 -1.64812,-2.5169 -2.26568,-2.6831 -5.33522,-1.43585 -0.85669,0.34812 -2.72592,0.88277 -4.15385,1.18813 -1.72514,0.36892 -3.21765,0.89292 -4.44831,1.56175 -2.3897,1.29874 -4.33332,1.8853 -9.62736,2.90544 -4.61587,0.88946 -7.19582,1.72117 -8.89347,2.86703 l -1.05833,0.71434 1.05833,0.16307 c 1.66133,0.25599 2.32444,0.25284 7.67292,-0.0365 z"
       style="fill:#ffffff;stroke-width:0.26458332" />
    <path
       id="path4739"
       d="m 91.945687,220.66539 c 1.276869,-0.67691 2.742335,-1.44116 3.25659,-1.69834 0.514257,-0.25719 2.53832,-0.84466 4.497916,-1.3055 4.473967,-1.05215 9.111107,-2.37979 11.450517,-3.27835 0.99121,-0.38072 3.54397,-1.17135 5.6728,-1.75694 3.63608,-1.00022 5.27409,-1.62583 10.1198,-3.86508 3.52009,-1.62666 4.53649,-2.59564 3.65125,-3.48088 -0.55949,-0.55949 -1.65346,-0.34599 -4.60436,0.89861 -6.29794,2.65628 -11.38679,4.43704 -27.493802,9.621 -9.13819,2.94108 -14.280039,6.07662 -9.990294,6.09217 0.826447,0.003 1.723435,-0.31691 3.439583,-1.22669 z"
       style="fill:#ffffff;stroke-width:0.26458332" />
    <path
       id="path4737"
       d="m -15.402523,218.29086 c 0,-0.23665 -0.609918,-1.55832 -1.355371,-2.93704 -1.353547,-2.5034 -1.355211,-2.5095 -1.238001,-4.53426 0.223946,-3.86854 3.254619,-8.13619 7.357269,-10.36014 l 1.7183944,-0.93151 0.1913466,-2.37578 c 0.1052407,-1.30669 0.3782166,-3.84906 0.6066182,-5.64973 0.2283989,-1.80066 0.3468264,-3.34238 0.2631704,-3.42604 -0.29827,-0.29827 -2.6493386,0.5247 -4.2233456,1.47835 -3.140908,1.90299 -7.937981,7.35453 -10.758786,12.22662 -2.831758,4.891 -4.157003,12.29591 -2.710659,15.14602 0.592347,1.16726 1.299679,1.38616 4.989989,1.54431 1.891771,0.0811 3.826536,0.17037 4.299479,0.19844 0.638548,0.0379 0.859896,-0.0597 0.859896,-0.37924 z"
       style="fill:#ffffff;stroke-width:0.26458332" />
    <path
       id="path4735"
       d="m -19.723706,206.50752 c -0.08226,-0.31457 -0.03662,-0.78299 0.101433,-1.04094 0.436057,-0.81478 0.282081,-0.83686 -0.920594,-0.13205 -1.607756,0.94221 -1.836835,0.89787 -1.672968,-0.32386 0.348062,-2.59498 3.55337,-6.89847 5.448041,-7.31461 0.480668,-0.10557 0.946301,-0.1196 1.034735,-0.0312 0.236585,0.23659 -0.561446,1.78372 -1.667441,3.23265 -1.165276,1.5266 -0.714272,2.02277 0.482557,0.53089 0.902457,-1.12494 1.780003,-1.2914 1.780003,-0.33765 0,0.99085 -1.77723,4.28063 -2.795516,5.1747 -1.092943,0.95962 -1.585193,1.02617 -1.79025,0.24203 z"
       style="fill:#000000;stroke-width:0.26458332" />
    <path
       id="path4733"
       d="m -6.4029303,216.40603 c 2.5722976,-1.31659 2.4331771,-2.36687 -0.268343,-2.02584 -2.6666534,0.33663 -3.3720347,0.26242 -4.1272537,-0.43417 -1.778024,-1.64002 -1.846416,-3.44218 -0.248682,-6.5529 1.5581867,-3.03373 1.7701603,-3.88123 0.906235,-3.62321 -5.133163,1.53308 -5.592299,10.6182 -0.650058,12.86291 1.504408,0.68329 2.7341993,0.61973 4.3881017,-0.22679 z"
       style="fill:#ffffff;stroke-width:0.26458332" />
    <path
       id="path4731"
       d="m 198.30482,214.84677 c 1.32566,-1.06875 2.48295,-3.34162 2.54296,-4.99425 l 0.0466,-1.28298 -1.66807,-1.17159 c -0.91744,-0.64438 -1.72122,-1.11845 -1.78617,-1.05348 -0.065,0.065 0.0148,1.10687 0.17758,2.31536 0.47443,3.52522 -0.43246,5.3375 -2.46729,4.93053 -1.30344,-0.26069 -1.99318,-0.84204 -2.8951,-2.44015 -0.45656,-0.80897 -0.99594,-1.53449 -1.19861,-1.61226 -0.61844,-0.23732 -1.40713,0.71369 -1.40713,1.6967 0,3.59131 5.72005,5.97847 8.65526,3.61212 z"
       style="fill:#ffffff;stroke-width:0.26458332" />
    <path
       id="path4729"
       d="m -133.01115,211.39665 c -0.2051,-0.68148 -0.95768,-2.19952 -1.6724,-3.37343 -1.68542,-2.76823 -2.37443,-4.14401 -2.69009,-5.37142 -0.2088,-0.81188 -0.23718,-0.59026 -0.1533,1.19724 0.12891,2.74708 1.29003,5.4023 3.25298,7.43882 1.5994,1.65935 1.73292,1.67085 1.26281,0.10879 z"
       style="fill:#ffffff;stroke-width:0.26458332" />
    <path
       id="path4727"
       d="m 195.8557,211.75084 c 1.0472,-0.76571 -0.27064,-2.65332 -1.42213,-2.03705 -0.53131,0.28434 -0.97521,1.65534 -0.68697,2.12172 0.23918,0.38699 1.53522,0.33496 2.1091,-0.0847 z"
       style="fill:#ffffff;stroke-width:0.26458332" />
    <path
       id="path4725"
       d="m -5.8740017,210.5694 c 0.5675629,-0.45959 0.5741299,-0.51204 0.1634833,-1.30614 -0.628089,-1.21459 -0.842719,-1.25095 -2.4978624,-0.42321 -1.7290308,0.86469 -1.8994592,1.41239 -0.5795591,1.8625 1.3341138,0.45496 2.238703,0.41362 2.9139382,-0.13315 z"
       style="fill:#ffffff;stroke-width:0.26458332" />
    <path
       id="path4723"
       d="M 65.926931,208.46853 C 61.202584,198.19124 57.210299,188.98318 53.996697,180.95186 l -1.720369,-4.29948 h -1.064755 -1.064757 l 0.125563,1.25677 c 0.196128,1.96307 3.621225,9.6936 5.880624,13.27272 0.386133,0.61167 1.236454,2.77173 1.889601,4.80014 2.558688,7.94621 4.978612,12.54748 7.385079,14.04208 1.40494,0.87257 1.49148,0.60293 0.499248,-1.55556 z"
       style="fill:#ffffff;stroke-width:0.26458332" />
    <path
       id="path4721"
       d="m 72.829719,209.89491 c 0.872128,-0.63771 0.56225,-2.06892 -1.145582,-5.29102 -3.094974,-5.83918 -6.332418,-13.92213 -6.764851,-16.88986 l -0.180898,-1.24148 3.255066,-1.66894 3.255062,-1.66894 -0.08881,-2.02908 c -0.08145,-1.86076 -0.04099,-2.05467 0.487664,-2.3376 0.812758,-0.43497 1.746861,-0.12617 3.258114,1.07711 1.434047,1.14181 2.24696,1.29672 2.917356,0.55594 0.4156,-0.45923 0.363652,-0.53632 -0.989512,-1.46827 -6.513576,-4.48608 -7.55274,-9.62229 -4.091501,-20.22281 0.300003,-0.9188 0.481325,-1.73468 0.402934,-1.81308 -0.07839,-0.0784 -1.438444,0.16735 -3.022346,0.54607 -1.583902,0.37873 -3.136275,0.6886 -3.449722,0.6886 -0.424156,0 -0.989465,0.62587 -2.210549,2.44739 -2.196203,3.27613 -3.08185,4.35546 -4.080147,4.97244 -1.846016,1.1409 -1.692712,0.18382 0.421367,-2.63058 1.758085,-2.34047 1.658385,-2.59694 -0.268356,-0.6903 -2.427266,2.40194 -2.595811,3.57173 -1.008922,7.00241 1.572389,3.39933 1.197305,4.41169 -2.103456,5.67725 -0.981488,0.37632 -2.118455,0.95203 -2.526594,1.27937 l -0.742069,0.59514 0.559049,1.26364 c 0.307478,0.695 1.694156,4.44547 3.081507,8.33437 4.85548,13.61048 7.529017,19.36881 10.313826,22.21418 1.556131,1.58997 1.675521,1.6576 2.925992,1.6576 0.717016,0 1.524939,-0.16179 1.795383,-0.35955 z"
       style="fill:#ffffff;stroke-width:0.26458332" />
    <path
       id="path4719"
       d="m 59.389355,207.80707 c -0.10735,-0.93835 -0.671566,-2.41927 -1.738866,-4.56406 -2.612903,-5.25077 -7.544715,-17.26015 -8.529391,-20.7698 -0.685445,-2.44311 -1.463053,-4.14228 -1.987825,-4.34365 -0.596921,-0.22906 -2.895799,1.00056 -5.538346,2.96234 -3.306098,2.4544 -13.722267,9.364 -17.019269,11.28979 -3.888973,2.27157 -3.863062,2.22397 -3.75199,6.89257 0.04339,1.82376 -0.07897,2.48279 -0.884259,4.7625 -1.211516,3.42972 -1.233218,4.24205 -0.119277,4.46484 0.454753,0.0909 5.018307,0.16536 10.14123,0.16536 h 9.31441 l 0.584513,-1.25677 c 1.490559,-3.20487 1.898655,-7.86729 1.39388,-15.92479 -0.158972,-2.53763 -0.231605,-4.6713 -0.161406,-4.7415 0.215172,-0.21517 1.462775,1.09199 2.138428,2.24052 1.806247,3.07041 2.205588,10.30103 0.917409,16.61092 -0.293839,1.4393 -0.47102,2.71923 -0.393737,2.84427 0.07728,0.12504 2.604034,0.23913 5.615003,0.25352 3.010969,0.0144 6.129332,0.11669 6.929696,0.22733 0.800365,0.11064 1.858746,0.21793 2.351958,0.23842 l 0.89675,0.0373 z"
       style="fill:#ffffff;stroke-width:0.26458332" />
    <path
       id="path4717"
       d="m 13.676066,208.43891 2.487961,-0.16882 0.645446,-1.71979 c 1.591363,-4.2402 2.161162,-8.33815 1.281663,-9.21765 -0.493247,-0.49325 -0.380572,-0.55492 -2.965918,1.62329 -1.001247,0.84357 -3.642591,2.68904 -5.8696493,4.10104 -4.6699301,2.96083 -6.7802679,4.67171 -6.0975953,4.94338 1.4869583,0.59176 5.6823847,0.76668 10.5180926,0.43855 z"
       style="fill:#ffffff;stroke-width:0.26458332" />
    <path
       id="path4715"
       d="m 194.34202,207.58774 c 0.72303,-1.41712 0.0859,-8.44609 -1.65306,-18.23536 -0.50406,-2.83766 -1.10149,-6.94531 -1.3276,-9.12812 -0.54073,-5.22028 -0.68811,-6.12988 -2.37914,-14.68438 -0.79105,-4.00182 -1.62644,-9.00245 -1.85645,-11.1125 -0.96591,-8.86213 -2.62911,-11.53941 -6.13505,-9.87573 l -0.93358,0.44301 0.17256,1.87209 c 0.24731,2.68327 1.1394,8.62178 2.01017,13.38146 3.8204,20.88207 4.93353,26.67225 6.06431,31.54493 0.71845,3.09597 1.61811,7.23638 1.99924,9.20091 1.13297,5.84 2.92791,8.77054 4.0386,6.59369 z"
       style="fill:#ffffff;stroke-width:0.26458332" />
    <path
       id="path4713"
       d="m 134.05163,204.11488 c 2.00065,-10.30946 5.63393,-19.07819 11.59825,-27.99167 3.81844,-5.70655 8.56408,-12.14384 9.83792,-13.34481 1.0768,-1.01521 1.04304,-1.27168 -0.10433,-0.79229 -2.51674,1.05157 -5.2575,1.50206 -9.47091,1.55671 l -4.18182,0.0542 -1.85449,1.56672 c -2.08175,1.75871 -3.99415,3.95911 -4.78044,5.50037 l -0.52549,1.03003 0.75057,-0.19231 c 7.38013,-1.89099 12.77188,-2.19639 13.24861,-0.75044 0.14901,0.45202 -3.63289,1.54993 -7.60328,2.2073 -11.13996,1.84439 -14.02955,4.37173 -9.06391,7.92757 3.00038,2.14852 2.93585,3.07053 -0.54081,7.72732 -2.8979,3.88158 -3.13795,5.4283 -1.08545,6.99382 1.6492,1.25791 2.01943,2.51577 1.80742,6.14065 -0.17195,2.93945 -0.14335,3.2497 0.4037,4.37975 0.32383,0.66891 0.66744,1.21548 0.76359,1.2146 0.0961,-8e-4 0.45654,-1.45329 0.80087,-3.22756 z"
       style="fill:#ffffff;stroke-width:0.26458332" />
    <path
       id="path4711"
       d="m -6.958214,203.75135 c 0.3131053,-1.24345 0.4201399,-2.29009 1.3507641,-13.20834 0.2976853,-3.4925 0.8422931,-8.49313 1.2102412,-11.1125 0.8033755,-5.71915 1.100066,-11.5465 0.6465993,-12.70001 -0.2431653,-0.61854 -0.359328,-0.70614 -0.5262774,-0.39687 -0.2234592,0.41396 -0.8646398,7.24831 -1.3404162,14.2875 -0.2617311,3.87234 -0.5984108,7.68405 -1.4372563,16.27188 -0.1989984,2.03729 -0.5513573,4.14682 -0.7830159,4.68785 -0.4990094,1.16542 -0.5482272,2.61991 -0.1036981,3.06444 0.5154956,0.51549 0.6616144,0.38262 0.9830593,-0.89395 z"
       style="fill:#ffffff;stroke-width:0.26458332" />
    <path
       id="path4709"
       d="m -4.3732216,203.85834 c 0.7932843,-0.74525 0.7724113,-0.90465 -0.1610757,-1.23007 -0.8518207,-0.29694 -1.0786427,-0.0518 -1.0786427,1.16554 0,0.79348 0.4394438,0.81635 1.2397184,0.0645 z"
       style="fill:#ffffff;stroke-width:0.26458332" />
    <path
       id="path4707"
       d="m 78.614217,204.18526 c 0.768567,-0.29221 1.762424,-1.29462 1.762424,-1.77759 0,-0.6555 -2.15066,0.57155 -2.655681,1.51519 -0.309224,0.57779 -0.09885,0.63959 0.893257,0.2624 z"
       style="fill:#ffffff;stroke-width:0.26458332" />
    <path
       id="path4705"
       d="m 198.63994,202.5154 c 1.08042,-2.45959 1.35959,-9.57505 0.78629,-20.04219 -0.15542,-2.83765 -0.36492,-11.93613 -0.46556,-20.21883 -0.14203,-11.6891 -0.25707,-15.0841 -0.51404,-15.16955 -0.18208,-0.0606 -0.42021,0.13083 -0.52916,0.4253 -0.22376,0.60472 -0.14092,56.12975 0.0837,56.12975 0.0796,0 0.36705,-0.50602 0.63873,-1.12448 z"
       style="fill:#ffffff;stroke-width:0.26458332" />
    <path
       id="path4703"
       d="m 122.65457,202.73181 c 2.48457,-0.66137 5.34707,-2.54014 5.34707,-3.50946 0,-0.54956 -1.75641,-0.4157 -4.10104,0.31255 -4.48772,1.39392 -7.7034,0.79591 -14.13687,-2.62898 -5.92851,-3.15607 -7.3568,-6.28236 -5.06454,-11.08537 2.03107,-4.25572 10.8788,-16.71012 14.878,-20.94282 5.94898,-6.29635 7.22779,-8.96047 5.2503,-10.93795 -1.58951,-1.58953 -2.24319,-1.45557 -4.46717,0.91546 -7.50369,7.99987 -14.16401,17.69219 -18.70567,27.2211 -2.810405,5.89653 -6.554251,16.00258 -6.097474,16.45935 0.09585,0.0959 1.98796,-0.28897 4.204684,-0.85515 6.77093,-1.72941 10.01225,-1.406 11.71631,1.16901 0.5545,0.83791 0.86864,1.04602 1.75929,1.16548 0.67931,0.0911 1.73792,0.59206 2.83452,1.34134 2.75178,1.88021 3.83561,2.10668 6.58259,1.37544 z"
       style="fill:#ffffff;stroke-width:0.26458332" />
    <path
       id="path4701"
       d="m 0.75271786,200.01875 c 0.93727324,-0.44431 2.47803984,-1.41909 3.42392524,-2.16617 2.0034964,-1.5824 3.9123592,-3.03932 6.4352699,-4.91165 3.661568,-2.71736 3.776141,-4.55227 0.390948,-6.26111 -3.5922186,-1.81335 -8.4293945,-2.03098 -13.3746553,-0.60176 l -1.3890624,0.40145 v 1.90108 c 0,2.29358 -0.6545236,8.08788 -1.1614917,10.28233 l -0.3668184,1.58781 0.8302996,0.37596 c 1.2351569,0.55929 3.2435534,0.32501 5.21158506,-0.60794 z"
       style="fill:#ffffff;stroke-width:0.26458332" />
    <path
       id="path4699"
       d="m 79.496253,199.20811 c 1.72946,-0.83675 4.300638,-1.93807 5.713733,-2.4474 2.526456,-0.91061 3.146256,-1.32291 1.988698,-1.32291 -0.926584,0 -7.350379,2.09393 -8.759745,2.85536 -1.102844,0.59584 -2.295631,1.77983 -2.295631,2.27871 0,0.25365 0.06231,0.22831 3.352945,-1.36376 z"
       style="fill:#ffffff;stroke-width:0.26458332" />
    <path
       id="path4697"
       d="m 86.345342,199.81184 c 0.481296,-0.36404 0.451202,-0.38899 -0.478597,-0.39688 -0.933513,-0.008 -1.219321,0.20543 -0.815797,0.60895 0.28159,0.28159 0.741288,0.20627 1.294394,-0.21207 z"
       style="fill:#ffffff;stroke-width:0.26458332" />
    <path
       id="path4695"
       d="m 89.232602,199.04793 c 0.332227,-0.24293 0.4293,-0.51793 0.300919,-0.85248 -0.119436,-0.31124 -0.257628,-0.3875 -0.373716,-0.20621 -0.101314,0.15821 -0.452096,0.37125 -0.779518,0.47344 -0.70992,0.22154 -0.799238,0.94387 -0.116716,0.94387 0.263229,0 0.699294,-0.16138 0.969031,-0.35862 z"
       style="fill:#ffffff;stroke-width:0.26458332" />
    <path
       id="path4693"
       d="m 79.23139,195.83519 c 4.038015,-1.34736 7.495251,-3.26703 7.495251,-4.16183 0,-0.53253 -3.0143,0.007 -5.159375,0.923 -1.164166,0.49728 -2.934049,1.2402 -3.933073,1.65093 -2.063483,0.84836 -3.342968,1.80859 -3.342968,2.50882 0,0.59199 0.919974,0.42049 4.940165,-0.92092 z"
       style="fill:#ffffff;stroke-width:0.26458332" />
    <path
       id="path4691"
       d="m 121.56779,195.68397 c 1.83415,-0.69735 1.8409,-1.09282 0.029,-1.70514 -0.91572,-0.30948 -2.15708,-0.87444 -2.75854,-1.25546 l -1.09357,-0.69277 -0.51679,0.57912 c -0.77852,0.87242 -1.6617,2.21317 -1.6617,2.52262 0,0.65805 4.60772,1.08156 6.00157,0.55163 z"
       style="fill:#ffffff;stroke-width:0.26458332" />
    <path
       id="path4689"
       d="m 92.143892,192.06436 c 2.58863,-3.5191 6.176364,-13.29531 4.879192,-13.29531 -0.55444,0 -10.664476,2.70851 -10.914523,2.92403 -0.535731,0.46177 2.082284,8.6317 3.407868,10.6348 0.888021,1.34189 1.491017,1.28141 2.627463,-0.26352 z"
       style="fill:#ffffff;stroke-width:0.26458332" />
    <path
       id="path4687"
       d="m 126.14956,192.2454 c 0,-1.00908 -0.50176,-1.49899 -2.30653,-2.25212 -0.98698,-0.41187 -2.06241,-0.91685 -2.38983,-1.12218 -0.56808,-0.35626 -0.59531,-0.33699 -0.59531,0.42154 0,1.16198 0.68376,1.79164 2.91042,2.68013 2.3977,0.95673 2.38125,0.95485 2.38125,0.27263 z"
       style="fill:#ffffff;stroke-width:0.26458332" />
    <path
       id="path4685"
       d="m 76.988149,191.7027 c 2.420858,-0.81074 6.450245,-2.70127 7.489534,-3.51397 0.457755,-0.35795 0.475609,-0.45049 0.132291,-0.68574 -0.868134,-0.59488 -1.625615,-0.60714 -2.338136,-0.0379 -1.017936,0.81329 -2.867178,1.74345 -4.54103,2.28413 -1.945606,0.62845 -3.724055,1.53821 -4.340487,2.22035 -0.502192,0.55574 -0.501044,0.55777 0.315677,0.55777 0.450837,0 1.927805,-0.3711 3.282151,-0.82468 z"
       style="fill:#ffffff;stroke-width:0.26458332" />
    <path
       id="path4683"
       d="m 195.57149,172.48286 -0.15984,-5.62472 -0.63209,-0.15865 c -2.36058,-0.59247 -3.10277,1.64193 -2.38315,7.17477 0.22711,1.74625 0.5376,5.02046 0.68998,7.27604 0.3198,4.73392 0.76941,7.14363 1.63623,8.76934 l 0.6145,1.15253 0.19711,-6.48229 c 0.1084,-3.56526 0.12518,-9.01342 0.0373,-12.10702 z"
       style="fill:#ffffff;stroke-width:0.26458332" />
    <path
       id="path4681"
       d="m 128.0254,188.81049 c 0.47151,-0.25234 0.35682,-0.40981 -1.27415,-1.74943 -2.59901,-2.1347 -3.39352,-2.33199 -4.00315,-0.994 -0.26167,0.57433 -0.22561,0.68252 0.2949,0.88489 0.32616,0.12681 1.30038,0.65925 2.16496,1.18321 1.69084,1.0247 2.01808,1.10314 2.81744,0.67533 z"
       style="fill:#ffffff;stroke-width:0.26458332" />
    <path
       id="path4679"
       d="m 75.084975,186.51181 c 2.825887,-1.03644 7.14375,-3.17382 7.14375,-3.53622 0,-0.33477 -0.120248,-0.30483 -1.109356,0.27631 -0.481261,0.28276 -2.224738,0.88033 -3.874397,1.32792 -1.649658,0.4476 -3.376065,1.00616 -3.836458,1.24125 -1.234893,0.63055 -2.292289,1.41579 -2.292289,1.70229 0,0.33682 0.958408,0.0925 3.96875,-1.01155 z"
       style="fill:#ffffff;stroke-width:0.26458332" />
    <path
       id="path4677"
       d="m 130.52426,184.39144 c -0.5112,-2.05963 -3.81551,-3.5567 -4.96385,-2.24896 -1.04362,1.18847 -0.86326,1.50137 1.18517,2.05602 1.70437,0.46148 3.05327,0.78161 3.73214,0.88572 0.12491,0.0192 0.14586,-0.29259 0.0465,-0.69278 z"
       style="fill:#ffffff;stroke-width:0.26458332" />
    <path
       id="path4675"
       d="m -54.548645,182.59079 c 0.547695,-0.65993 0.606629,-4.20821 0.120602,-7.26133 -0.243239,-1.52797 -0.527137,-4.74265 -0.630885,-7.14375 -0.199028,-4.60616 -0.470575,-5.59728 -1.615594,-5.89671 -0.706665,-0.1848 -0.683154,-0.407 -0.474593,4.4855 0.57341,13.4512 1.233151,17.46381 2.60047,15.81629 z"
       style="fill:#ffffff;stroke-width:0.26458332" />
    <path
       id="path4673"
       d="m 94.217926,174.80841 c 5.237237,-0.89983 6.025414,-1.43403 9.771364,-6.6227 1.10312,-1.52797 3.93118,-4.86172 6.28458,-7.40833 4.41078,-4.77289 7.02921,-8.00785 7.96259,-9.83743 l 0.53544,-1.04953 -2.19815,0.16846 c -9.87169,0.75652 -25.381715,3.09568 -32.575987,4.91298 -5.614493,1.41824 -8.75135,4.15814 -10.109565,8.83023 -1.214988,4.17941 1.217692,7.6387 7.128065,10.13615 4.371997,1.8474 6.642801,1.99708 13.201663,0.87017 z"
       style="fill:#ffffff;stroke-width:0.26458332" />
    <path
       id="path4671"
       d="m 47.303725,174.21546 c 0.363802,-0.13352 1.245428,-0.61657 1.959168,-1.07344 l 1.297708,-0.83068 -0.768541,-0.22193 c -0.870339,-0.25132 -3.407164,-0.0483 -4.602345,0.36836 -0.634468,0.22117 -0.796406,0.43109 -0.796406,1.03235 0,1.2472 0.886542,1.46814 2.910416,0.72534 z"
       style="fill:#ffffff;stroke-width:0.26458332" />
    <path
       id="path4669"
       d="m 57.511533,172.39546 c 0.497416,-0.54964 0.495794,-0.55226 -0.28746,-0.46302 -0.494149,0.0563 -0.820422,0.26229 -0.875506,0.55275 -0.120938,0.63771 0.551598,0.58582 1.162966,-0.0897 z"
       style="fill:#ffffff;stroke-width:0.26458332" />
    <path
       id="path4667"
       d="m 49.887752,169.39405 c 0.310462,-0.31047 -0.599676,-0.96524 -1.238462,-0.89098 -0.491363,0.0571 -0.709345,0.25807 -0.773689,0.71325 -0.08393,0.59374 -0.02759,0.62368 0.892678,0.47434 0.540244,-0.0877 1.044006,-0.22115 1.119473,-0.29661 z"
       style="fill:#ffffff;stroke-width:0.26458332" />
    <path
       id="path4665"
       d="m 55.948062,169.13984 c 1.496203,-1.28698 0.473477,-4.48273 -1.292728,-4.03944 -0.877831,0.22032 -2.305195,1.22648 -2.922502,2.06008 -1.336794,1.80521 2.385602,3.55314 4.21523,1.97936 z"
       style="fill:#ffffff;stroke-width:0.26458332" />
    <path
       id="path4663"
       d="m 235.95449,169.11024 c 2.37488,-1.2281 3.98804,-7.54843 2.61404,-10.24173 -2.81065,-5.50929 -15.864,-11.2203 -28.86636,-12.6294 -8.67709,-0.94036 -9.17869,-0.31848 -8.81206,10.92525 l 0.19193,5.88664 6.25615,0.31695 c 13.53889,0.68593 20.39803,2.01394 25.30063,4.8985 2.39217,1.4075 2.28052,1.37909 3.31567,0.84379 z"
       style="fill:#ffffff;stroke-width:0.26458332" />
    <path
       id="path4661"
       d="m 46.065777,167.31332 c 1.010962,-0.5742 2.02882,-1.86451 1.716889,-2.17645 -0.304292,-0.30429 -4.049538,-0.22677 -4.643003,0.0961 -0.740482,0.40285 -0.978432,1.29182 -0.607163,2.26832 0.268245,0.70554 0.35126,0.73958 1.396177,0.57249 0.611036,-0.0977 1.572731,-0.43992 2.1371,-0.76047 z"
       style="fill:#ffffff;stroke-width:0.26458332" />
    <path
       id="path4659"
       d="m 194.34832,164.15082 c 1.06439,-1.13628 1.17014,-1.92081 1.20345,-8.92969 0.041,-8.61949 -0.0217,-8.74574 -3.89215,-7.84065 -1.03277,0.2415 -2.21893,0.43757 -2.63586,0.43571 l -0.75808,-0.003 0.18507,1.52136 c 0.34492,2.83487 2.26674,13.08334 2.56048,13.65409 0.54462,1.05824 1.37166,1.75789 2.07791,1.75789 0.38587,0 0.95242,-0.26786 1.25918,-0.59532 z"
       style="fill:#ffffff;stroke-width:0.26458332" />
    <path
       id="path4657"
       d="m 46.179246,162.72728 c 0.875094,-0.23451 0.835644,-1.42073 -0.04725,-1.42073 -0.61232,0 -1.474108,0.60398 -1.474108,1.03313 0,0.53197 0.50374,0.66031 1.521354,0.3876 z"
       style="fill:#ffffff;stroke-width:0.26458332" />
    <path
       id="path4655"
       d="m 58.720805,161.87705 c 0.959091,-0.85695 0.899584,-1.51575 -0.160959,-1.78193 -1.712772,-0.42988 -2.537931,0.58413 -1.583827,1.9463 0.532765,0.76063 0.730366,0.74201 1.744786,-0.16437 z"
       style="fill:#ffffff;stroke-width:0.26458332" />
    <path
       id="path4653"
       d="m 54.322483,161.81275 c 0.349772,-1.10203 -0.487375,-3.718 -1.28815,-4.02528 -0.43108,-0.16543 -3.427796,3.14728 -3.2742,3.61945 0.118808,0.36524 2.096034,0.90793 3.412741,0.93671 0.766016,0.0167 1.011833,-0.0968 1.149609,-0.53088 z"
       style="fill:#ffffff;stroke-width:0.26458332" />
    <path
       id="path4651"
       d="m 44.063024,160.20069 c 1.59494,-0.97385 1.401972,-2.35055 -0.399179,-2.84787 -0.938007,-0.25899 -3.155043,-0.10076 -3.365783,0.24022 -0.105683,0.171 0.581279,3.11381 0.815445,3.49321 0.160293,0.2597 1.957629,-0.27993 2.949517,-0.88556 z"
       style="fill:#ffffff;stroke-width:0.26458332" />
    <path
       id="path4649"
       d="m 147.84539,159.3348 c 8.47992,-1.2858 14.13946,-5.33938 17.56447,-12.58034 3.21503,-6.79704 2.94217,-10.13222 -1.33109,-16.2691 -1.38168,-1.98424 -2.04566,-2.41713 -7.07427,-4.61215 -3.51433,-1.53402 -5.02002,-3.46041 -2.70468,-3.46041 4.55697,0 10.3795,4.51379 13.99318,10.84791 1.68198,2.94822 2.48073,7.21729 2.05946,11.00737 -0.23879,2.14817 -0.42524,2.67811 -2.13167,6.05826 -1.02851,2.03729 -1.86655,3.8659 -1.86229,4.06358 0.0127,0.58904 1.1472,0.17673 5.56397,-2.02201 5.71148,-2.84328 6.08095,-3.56548 4.65048,-9.09021 -0.80391,-3.10489 -1.91305,-8.81103 -2.15276,-11.07532 -0.15036,-1.4203 -0.35488,-1.95017 -1.17443,-3.04271 -1.37644,-1.83491 -1.58787,-2.3147 -1.58787,-3.60312 0,-1.65591 1.77766,-3.31062 4.65013,-4.32854 3.59944,-1.27553 5.12617,-2.03751 5.94032,-2.96479 0.97081,-1.10569 0.97835,-1.39289 0.059,-2.25301 -1.37745,-1.28876 -2.39572,-1.61867 -5.35781,-1.7359 -4.3365,-0.17164 -7.4499,0.40325 -10.26946,1.89623 -7.06194,3.73938 -8.73594,4.2906 -10.78841,3.55253 -1.13131,-0.40682 -1.26373,-0.3984 -3.14876,0.20021 -4.52826,1.43799 -9.16731,1.33091 -12.73273,-0.29389 -2.4703,-1.12576 -2.30849,-1.12542 -6.26594,-0.0134 -1.77599,0.49904 -4.83642,1.35968 -6.80095,1.91253 -6.91995,1.94738 -10.19447,1.18219 -13.36828,-3.1239 -1.00148,-1.35876 -1.11746,-1.68181 -1.27565,-3.55314 -0.20033,-2.36987 -0.60246,-3.13355 -1.97163,-3.74431 -0.53858,-0.24025 -2.64611,-1.24465 -4.6834,-2.23199 -10.392027,-5.03635 -18.008765,-5.57856 -22.833053,-1.62542 -2.920037,2.39275 -6.149916,7.6461 -7.050672,11.4678 -0.523838,2.22252 -0.526788,6.57334 -0.0058,8.6006 1.869467,7.27492 6.493669,10.61408 17.189558,12.41266 5.037863,0.84716 8.644517,1.00679 24.077087,1.06566 16.13519,0.0616 18.04783,0.16972 21.41992,1.21124 2.96421,0.91555 3.25297,2.22883 0.76002,3.45619 -1.24156,0.61124 -1.46455,0.62911 -7.84882,0.62911 h -6.57098 l -0.53096,0.65467 c -0.69271,0.85409 -0.49477,2.19108 0.63944,4.31909 3.44422,6.462 12.75334,9.81496 22.95533,8.26804 z"
       style="fill:#ffffff;stroke-width:0.26458332" />
    <path
       id="path4647"
       d="m 134.81821,150.99746 c -6.17334,-1.12984 -5.5484,-3.10409 0.72609,-2.29377 5.54704,0.71637 11.76422,-0.94788 22.09067,-5.91338 6.18763,-2.97532 7.3283,-3.44418 8.37922,-3.44418 h 0.62736 l -0.51353,0.99219 c -2.17474,4.20164 -10.72388,8.49809 -20.44928,10.27699 -2.61374,0.47809 -9.09103,0.706 -10.86053,0.38215 z"
       style="fill:#000000;stroke-width:0.26458332" />
    <path
       id="path4645"
       d="m 61.080825,157.22869 c 3.246776,-1.11861 8.259622,-7.12265 6.397379,-7.66234 -5.852067,-1.69596 -12.808762,-2.74737 -13.766347,-2.08058 -0.481322,0.33515 0.541364,6.64812 1.338834,8.26453 1.021199,2.06988 2.944611,2.54143 6.030134,1.47839 z"
       style="fill:#ffffff;stroke-width:0.26458332" />
    <path
       id="path4643"
       d="m 44.922475,154.33239 c 0,-1.28179 -1.503269,-1.65429 -2.742443,-0.67956 -0.607817,0.47811 -1.032695,1.52147 -0.498702,1.22465 0.10914,-0.0607 0.79375,-0.0314 1.521354,0.0649 1.5792,0.20918 1.719791,0.15931 1.719791,-0.61002 z"
       style="fill:#ffffff;stroke-width:0.26458332" />
    <path
       id="path4641"
       d="m 74.7654,154.53636 c 2.555515,-0.52654 6.646794,-1.82489 7.334078,-2.32745 0.707853,-0.51759 -0.02859,-0.62055 -5.929749,-0.82903 l -4.603789,-0.16264 -1.415481,1.49685 c -0.778516,0.82327 -1.415484,1.66462 -1.415484,1.86966 0,0.52396 3.386558,0.49735 6.030425,-0.0474 z"
       style="fill:#ffffff;stroke-width:0.26458332" />
    <path
       id="path4639"
       d="m 52.712769,153.59923 c 0.494789,-0.92409 0.496514,-0.98751 0.04557,-1.67575 -0.829654,-1.26621 -3.317576,-1.86188 -5.040511,-1.20682 -0.568971,0.21633 -0.678683,0.42544 -0.678683,1.29361 0,1.40682 0.635778,2.08107 2.248958,2.38503 2.259351,0.42572 2.843141,0.29002 3.424669,-0.79607 z"
       style="fill:#ffffff;stroke-width:0.26458332" />
    <path
       id="path4637"
       d="m 40.92759,151.66277 c 0.902105,-0.4665 2.407385,-2.13508 2.407385,-2.66856 0,-0.89718 -3.586165,-0.26161 -4.818962,0.85406 -0.597987,0.54117 -0.592431,0.65137 0.07567,1.50072 0.619009,0.78694 1.255562,0.87245 2.335911,0.31378 z"
       style="fill:#ffffff;stroke-width:0.26458332" />
    <path
       id="path4635"
       d="m 101.92738,150.19623 c 1.69537,-0.28983 4.05869,-0.77971 5.25181,-1.08861 1.88728,-0.48862 2.63372,-0.54159 5.7412,-0.40742 5.50818,0.23783 8.49818,-0.31826 8.68318,-1.61493 0.14062,-0.98569 -0.93668,-1.28896 -3.07006,-0.86426 -1.26015,0.25086 -4.62271,0.36686 -11.56624,0.399 -11.011031,0.051 -10.56456,-0.0237 -12.515291,2.0926 -1.224311,1.32822 -1.337587,1.64794 -0.647734,1.82822 1.181518,0.30876 5.331071,0.13273 8.123135,-0.3446 z"
       style="fill:#ffffff;stroke-width:0.26458332" />
    <path
       id="path4633"
       d="m 191.48674,145.27919 c 0.33145,-0.31751 0.29848,-0.45477 -0.24931,-1.03789 -0.73618,-0.7836 -2.94974,-2.24934 -3.39696,-2.24934 -0.33909,0 -0.40103,1.38346 -0.13425,2.99812 l 0.16748,1.01374 1.61554,-0.17936 c 0.88853,-0.0986 1.78742,-0.34402 1.9975,-0.54527 z"
       style="fill:#ffffff;stroke-width:0.26458332" />
    <path
       id="path4631"
       d="m 195.71825,144.8589 c -1.37454,-2.62019 -7.76317,-8.94224 -9.04526,-8.951 -0.34062,-0.002 -0.21719,1.31155 0.19878,2.11598 0.21847,0.42247 0.96261,1.15195 1.65365,1.62106 0.69104,0.4691 2.26846,1.8292 3.50539,3.02243 2.78137,2.68312 4.47262,3.68826 3.68744,2.19153 z"
       style="fill:#ffffff;stroke-width:0.26458332" />
    <path
       id="path4629"
       d="m 83.551641,143.96693 c 0,-0.22585 -0.499359,-0.62065 -1.124479,-0.88903 -0.618464,-0.26551 -1.719792,-0.86076 -2.447396,-1.32277 -1.846511,-1.17249 -4.574836,-1.96576 -9.657291,-2.80791 -5.69291,-0.94331 -7.960093,-1.70953 -14.816667,-5.00751 -8.840543,-4.25225 -11.123974,-5.07757 -15.807443,-5.71337 -7.787743,-1.05723 -13.269936,1.50278 -15.000525,7.00477 -0.7288,2.31705 -0.309367,2.39445 5.529606,1.0205 3.644101,-0.85749 9.201203,-0.76275 17.547873,0.29916 6.896785,0.87744 9.887153,1.52181 19.147379,4.12591 11.089857,3.11862 16.628943,4.2146 16.628943,3.29025 z"
       style="fill:#ffffff;stroke-width:0.26458332" />
    <path
       id="path4627"
       d="m 184.1544,141.77717 c 0.85854,-0.35342 0.73922,-1.02999 -0.22432,-1.27182 -1.05563,-0.26495 -2.45782,0.14699 -3.3542,0.98542 l -0.8482,0.79336 1.85208,-0.10476 c 1.01865,-0.0576 2.17723,-0.23861 2.57464,-0.4022 z"
       style="fill:#ffffff;stroke-width:0.26458332" />
    <path
       id="path4625"
       d="m 211.86709,141.78617 c 0.77955,-0.63122 1.0005,-2.65238 0.78849,-7.21212 -0.21011,-4.5184 -0.93245,-6.07628 -2.81739,-6.07628 -1.08744,0 -4.48553,1.67538 -7.33846,3.61811 -2.75233,1.87422 -2.9456,1.82143 -2.86549,-0.78273 0.068,-2.21147 -0.0977,-2.42769 -1.09572,-1.42966 -1.93307,1.93307 -0.68074,7.49572 2.15001,9.54999 2.89327,2.09964 9.70976,3.52208 11.17856,2.3327 z"
       style="fill:#ffffff;stroke-width:0.26458332" />
    <path
       id="path4623"
       d="m 216.03238,137.21271 c 0.84761,-2.46423 0.83431,-5.97615 -0.0314,-8.27605 -0.8109,-2.15437 -1.47638,-3.44175 -1.67593,-3.24219 -0.30395,0.30395 -0.52609,6.93905 -0.31551,9.42376 0.3693,4.35763 1.01457,5.02574 2.02282,2.09448 z"
       style="fill:#ffffff;stroke-width:0.26458332" />
    <path
       id="path4621"
       d="m 183.76258,137.35992 c 0.73937,-0.85647 0.74168,-1.40111 0.0188,-4.44784 -0.90117,-3.79762 -2.15349,-4.58602 -5.34884,-3.3674 l -0.76608,0.29217 0.17262,2.43931 c 0.33853,4.78411 1.24613,6.19174 3.82206,5.92773 1.18176,-0.12113 1.63449,-0.30294 2.10156,-0.84397 z"
       style="fill:#ffffff;stroke-width:0.26458332" />
    <path
       id="path4619"
       d="m 205.85703,127.03496 c 5.05643,-0.75464 7.62794,-1.84337 5.90293,-2.49921 -1.9772,-0.75173 -5.96283,0.2843 -8.6116,2.2385 -1.0776,0.79503 -0.95237,0.80708 2.70867,0.26071 z"
       style="fill:#ffffff;stroke-width:0.26458332" />
    <path
       id="path4617"
       d="m 184.61681,126.78091 c 0.72856,-0.37675 0.75541,-0.45558 0.616,-1.80654 -0.20412,-1.97769 0.23617,-2.64813 2.97739,-4.53372 2.87877,-1.9802 3.42373,-2.67658 3.42373,-4.37491 0,-4.12828 -6.24462,-6.95001 -15.47812,-6.99403 -4.20955,-0.0201 -4.42003,0.005 -5.88698,0.69215 -2.8687,1.34438 -1.78573,1.92349 4.03489,2.15765 5.28707,0.2127 8.43442,1.20117 10.31267,3.23886 2.34812,2.5474 1.18816,4.15502 -5.49029,7.60916 -6.05036,3.12928 -6.15363,3.52052 -1.06048,4.01793 4.55769,0.44511 5.67992,0.44399 6.55119,-0.007 z"
       style="fill:#ffffff;stroke-width:0.26458332" />
    <path
       id="path4615"
       d="m 121.72877,119.05159 c 0.74781,-0.32328 0.95554,-0.54005 0.81608,-0.85156 -0.10293,-0.22984 -0.23887,-1.3262 -0.30213,-2.43635 -0.14073,-2.46946 0.435,-4.00826 1.92897,-5.15565 2.21361,-1.7001 2.50624,-2.05795 2.7414,-3.35261 0.39698,-2.18533 1.51381,-2.88126 2.66219,-1.65887 0.52252,0.55621 0.58224,0.81541 0.42672,1.85245 -0.22432,1.49594 0.2132,1.73418 3.18473,1.73418 3.54095,0 4.32507,0.64714 5.23494,4.32043 0.70967,2.86494 1.19423,3.78374 2.19647,4.16479 1.4288,0.54323 2.44165,-0.47371 2.75164,-2.7628 0.30892,-2.28115 -0.11981,-3.7183 -1.89146,-6.34035 -1.66729,-2.46758 -1.89812,-3.40633 -0.97906,-3.98174 1.16919,-0.73204 3.98171,2.09819 4.83383,4.86426 0.27072,0.8788 0.50448,2.80017 0.59015,4.85073 0.15616,3.7369 0.26107,3.94122 1.65384,3.22099 1.19472,-0.61781 2.11444,-2.69528 2.1178,-4.78363 0.003,-1.36878 -0.17402,-1.96957 -1.19004,-4.05709 -0.65593,-1.34771 -1.22148,-2.82735 -1.25677,-3.28809 -0.0607,-0.79198 -0.01,-0.84222 0.93868,-0.92046 2.15094,-0.17749 3.07174,1.89143 3.33399,7.49109 l 0.16111,3.43958 0.6599,-0.0937 c 0.98874,-0.14042 2.55804,-1.01217 3.02678,-1.6814 0.63232,-0.90278 0.51011,-1.80455 -0.66249,-4.8882 -1.79743,-4.72663 -1.66236,-6.106 0.52324,-5.3441 1.56794,0.5466 2.0947,2.27794 2.40048,7.88991 0.31147,5.71693 0.71014,6.51549 2.33103,4.66937 1.67471,-1.90736 1.98959,-5.65264 0.85834,-10.20915 -0.59468,-2.39527 -0.68718,-2.56956 -1.96565,-3.70417 -0.73787,-0.65484 -2.048,-1.85894 -2.91142,-2.675778 l -1.56982,-1.485156 -4.91707,1.263052 c -6.04462,1.552692 -6.51354,1.721772 -10.17596,3.669222 -3.37841,1.79642 -5.60093,2.52498 -7.09242,2.32492 -3.26141,-0.43744 -1.74977,-1.91793 4.49271,-4.40004 2.21088,-0.879074 8.46283,-2.92955 8.9323,-2.92955 0.4653,0 -0.0512,-1.151128 -0.81896,-1.825238 -1.19526,-1.049452 -2.29685,-1.502715 -4.9671,-2.043777 -8.54589,-1.731619 -21.83855,4.085974 -23.95408,10.483595 -1.58101,4.78119 -1.26554,11.14383 0.68024,13.71933 1.23147,1.63001 2.85413,1.91574 5.17687,0.91158 z"
       style="fill:#ffffff;stroke-width:0.26458332" />
    <path
       id="path4613"
       d="m 128.5424,117.75821 c 0.67167,-1.38747 0.60806,-3.44356 -0.16637,-5.37906 -0.46803,-1.16971 -0.68927,-1.25867 -1.69731,-0.68242 -0.3638,0.20796 -0.98327,0.38234 -1.37662,0.38749 -1.83814,0.0241 -1.59981,5.46572 0.28421,6.48943 1.42571,0.77468 2.30354,0.53252 2.95609,-0.81544 z"
       style="fill:#ffffff;stroke-width:0.26458332" />
    <path
       id="path4611"
       d="m 132.48762,115.29911 c 0.0509,-2.69177 -0.78062,-4.41063 -1.81652,-3.75488 -0.40095,0.25383 0.077,3.42137 0.78153,5.17958 l 0.31808,0.79375 0.35248,-0.79375 c 0.19388,-0.43656 0.35787,-1.07768 0.36443,-1.4247 z"
       style="fill:#ffffff;stroke-width:0.26458332" />
    <path
       id="path4609"
       d="m 135.94205,113.61495 c 0.88678,-1.45444 0.43736,-2.54937 -0.90789,-2.21174 -0.77396,0.19426 -1.05852,0.93956 -0.82796,2.1686 0.22444,1.19637 1.02063,1.21616 1.73585,0.0431 z"
       style="fill:#ffffff;stroke-width:0.26458332" />
    <path
       id="path4607"
       d="m 164.62415,112.74963 c 0.1859,-0.74069 -0.26003,-1.81639 -0.65246,-1.57387 -0.13822,0.0854 -0.2513,0.62454 -0.2513,1.19804 0,1.20228 0.63053,1.46448 0.90376,0.37583 z"
       style="fill:#ffffff;stroke-width:0.26458332" />
    <path
       id="path4605"
       d="m 167.42456,112.11727 c 0,-1.37531 -1.71424,-3.95389 -2.26344,-3.40469 -0.0947,0.0947 0.11774,0.80531 0.47205,1.57918 0.3543,0.77388 0.59692,1.54881 0.53917,1.72207 -0.0578,0.17326 0.0301,0.56743 0.19518,0.87594 0.39201,0.7325 1.05704,0.2465 1.05704,-0.7725 z"
       style="fill:#ffffff;stroke-width:0.26458332" />
    <path
       id="path4603"
       d="m 185.79085,107.05056 c 1.66774,-1.4643 2.1355,-3.18937 2.11208,-7.789246 -0.0311,-6.108623 -1.95505,-14.684375 -3.29438,-14.684375 -0.11755,0 -0.10297,0.386167 0.0324,0.858149 0.81973,2.858241 0.0625,7.356187 -2.26094,13.429351 -1.71749,4.489381 -2.52003,6.927331 -2.52003,7.655451 0,0.28842 0.50618,0.54495 1.65365,0.83807 2.59088,0.66182 3.22527,0.61623 4.27723,-0.3074 z"
       style="fill:#ffffff;stroke-width:0.26458332" />
    <path
       id="path4601"
       d="m 229.33705,249.46931 c 0,-0.67535 1.44087,-2.22031 3.51484,-3.76877 2.45612,-1.8338 7.65346,-6.84979 11.65897,-11.25217 2.00323,-2.20172 2.89919,-3.50287 5.19234,-7.54062 4.2568,-7.49531 6.848,-11.09748 7.98293,-11.09748 1.06492,0 -1.73586,5.97164 -5.58319,11.90411 -1.46201,2.2544 -3.07888,5.10378 -3.59299,6.33196 -1.613,3.85325 -5.37485,7.71365 -11.49998,11.80127 -3.28046,2.18921 -7.67292,4.26251 -7.67292,3.6217 z"
       style="fill:#000000;stroke-width:0.26458332" />
    <path
       id="path4599"
       d="m 238.59747,231.30357 c 0,-1.37418 1.95958,-5.00002 8.01587,-14.83184 2.33061,-3.78354 4.57131,-7.59354 4.97933,-8.46666 0.80904,-1.73131 2.11775,-6.6634 3.2821,-12.36928 0.62603,-3.06777 0.81777,-3.63802 1.22333,-3.63802 2.39747,0 -1.25945,14.03377 -6.65319,25.5323 -1.33149,2.83849 -5.81697,9.77174 -7.66715,11.85116 -1.27682,1.43503 -3.18029,2.58559 -3.18029,1.92234 z"
       style="fill:#000000;stroke-width:0.26458332" />
    <path
       id="path4597"
       d="m 186.73742,229.06992 c -2.62067,-0.84897 -4.4962,-2.933 -4.4962,-4.99607 0,-1.70456 0.8523,-1.72473 1.96292,-0.0465 0.7615,1.15072 1.50566,1.43187 4.55406,1.72055 2.29045,0.21691 2.56069,0.35975 2.3405,1.2371 -0.4052,1.61448 -2.58974,2.65878 -4.36128,2.08489 z"
       style="fill:#000000;stroke-width:0.26458332" />
    <path
       id="path4595"
       d="m 186.54716,224.52352 c -1.17822,-0.59022 -2.18927,-1.90989 -2.18927,-2.8575 0,-0.46827 0.15729,-0.56408 0.92604,-0.56408 0.91506,0 0.92604,-0.0135 0.92604,-1.14005 0,-1.62752 0.4844,-2.20022 1.59224,-1.88249 1.71685,0.49238 2.5327,2.95518 1.92159,5.80067 -0.28282,1.31681 -1.38629,1.54033 -3.17664,0.64345 z"
       style="fill:#000000;stroke-width:0.26458332" />
    <path
       id="path4593"
       d="m 205.37006,205.97779 c -0.23794,-0.46016 -0.49625,-1.56149 -0.57401,-2.4474 l -0.14139,-1.61074 0.55729,0.49501 c 0.93943,0.83449 1.7368,4.39978 0.98399,4.39978 -0.21628,0 -0.58791,-0.37649 -0.82588,-0.83665 z"
       style="fill:#000000;stroke-width:0.26458332" />
    <path
       id="path4591"
       d="m 208.20132,206.1184 c -1.92977,-1.35166 -1.78324,-4.9593 0.3425,-8.43208 0.96036,-1.56894 0.96967,-1.61133 0.79531,-3.6247 l -0.17642,-2.0372 0.74229,-0.1863 c 2.34349,-0.58818 4.1044,3.25405 4.10556,8.95806 0,3.8573 -0.48882,5.29369 -1.60136,4.69827 -0.45927,-0.24578 -0.53465,-0.55052 -0.53465,-2.1613 0,-1.67554 -0.0443,-1.8384 -0.41621,-1.52974 -0.57923,0.48072 -1.35239,2.06395 -1.71911,3.52026 -0.33408,1.32684 -0.58967,1.45891 -1.53791,0.79473 z"
       style="fill:#000000;stroke-width:0.26458332" />
    <path
       id="path4589"
       d="m -88.733716,114.90276 c -2.417212,-0.51991 -3.019155,-1.37144 -1.479743,-2.09332 3.32127,-1.55744 11.642857,-2.25671 30.757812,-2.58463 7.276041,-0.12482 19.973446,-0.34283 28.216452,-0.48447 14.81156,-0.25451 20.549726,-0.53009 23.64188,-1.13542 1.1271541,-0.22066 7.68707171,-0.31811 22.621874,-0.33608 11.568906,-0.0139 24.665781,-0.11908 29.104166,-0.23367 8.06849,-0.20834 8.069694,-0.20829 7.470138,0.31753 -1.494685,1.31086 -6.343777,1.70914 -26.123262,2.14566 -9.077992,0.20034 -12.072157,0.35768 -14.816666,0.77858 -4.8187825,0.73901 -10.1308722,1.07564 -17.065625,1.08144 -6.873904,0.006 -13.331983,0.35269 -17.242922,0.92632 -5.729687,0.84039 -7.857167,0.91152 -30.64666,1.02468 -19.248117,0.0956 -23.957166,0.18972 -26.458333,0.52897 -3.592772,0.48731 -5.925351,0.50614 -7.979111,0.0644 z"
       style="fill:#000000;stroke-width:0.26458332" />
    <path
       id="path4587"
       d="m -66.568247,98.056228 c -1.292556,-0.134274 -2.780837,-0.36531 -3.307292,-0.513411 -1.877269,-0.528111 -6.182315,-0.590936 -11.007418,-0.160636 -5.581062,0.497715 -8.323421,0.53151 -11.156344,0.137488 -3.305839,-0.459801 -3.748301,-0.971003 -1.731957,-2.00102 1.879518,-0.960123 5.05183,-1.246788 11.14979,-1.007552 7.627284,0.299233 11.405375,0.24412 16.286654,-0.237583 12.379947,-1.221698 25.565026,-1.4776 60.5895823,-1.175948 22.3877027,0.192817 24.0678987,0.240006 32.3110927,0.907475 6.082012,0.492472 12.348041,0.37601 16.239948,-0.301839 1.987793,-0.346212 4.208248,-0.489982 7.805208,-0.505365 4.854599,-0.02077 5.072475,0.0013 6.35,0.639959 3.740732,1.870366 -0.762574,3.39303 -9.076785,3.069058 -12.21065,-0.475803 -27.819347,-0.483592 -32.527171,-0.01622 -4.182525,0.415213 -5.165055,0.427241 -9.317066,0.114078 -5.47022063,-0.412592 -8.0302495,-0.412562 -17.6556,2.06e-4 -4.021992,0.172477 -13.470361,0.275146 -21.43125,0.232876 -11.867401,-0.06301 -14.94279,-0.0016 -18.471292,0.368895 -5.383734,0.565282 -12.026109,0.763691 -15.0501,0.449548 z"
       style="fill:#000000;stroke-width:0.26458332" />
    <path
       id="path4585"
       d="m 230.05791,79.703098 c -1.79628,-0.738667 -2.21147,-1.050039 -2.72552,-2.044116 -0.48533,-0.938543 -1.54393,-5.496208 -1.32697,-5.713164 1.09231,-1.0923 10.73997,1.976729 10.73997,3.416504 0,1.174359 -0.7838,2.336104 -2.17774,3.227785 -0.77938,0.498573 -1.57532,1.097171 -1.76873,1.330216 -0.46874,0.564804 -0.92774,0.528426 -2.74101,-0.217225 z"
       style="fill:#000000;stroke-width:0.26458332" />
    <path
       id="path4583"
       d="m 235.9492,72.800491 c -0.71405,-0.86039 1.40055,-4.369869 3.19085,-5.295675 1.08805,-0.562647 1.77795,-0.482721 2.49299,0.288804 0.8296,0.89517 0.52932,1.8049 -1.08781,3.295517 -1.90839,1.759091 -3.93129,2.512325 -4.59603,1.711354 z"
       style="fill:#000000;stroke-width:0.26458332" />
    <path
       id="path4581"
       d="m 240.63527,64.309237 c -1.15692,-0.372406 -2.42941,-0.991293 -2.89674,-1.408872 l -0.83349,-0.744717 0.78007,-0.393015 c 1.30847,-0.659233 2.40704,-0.73778 4.68455,-0.334934 1.19952,0.21217 2.48925,0.387956 2.86607,0.390637 1.06196,0.0076 1.77057,2.073558 0.98174,2.862376 -0.53459,0.534591 -3.34933,0.347279 -5.5822,-0.371475 z"
       style="fill:#000000;stroke-width:0.26458332" />
    <path
       id="path4579"
       d="m 226.82351,51.484565 c -3.26802,-0.261768 -8.35739,-0.973024 -8.58321,-1.199533 -0.31398,-0.314968 1.39499,-1.437148 2.81913,-1.851163 1.807,-0.525304 5.95231,-0.390123 8.40992,0.274254 1.85065,0.500295 4.43669,1.733571 4.56821,2.178574 0.19593,0.662879 -3.04705,0.931643 -7.21405,0.597868 z"
       style="fill:#000000;stroke-width:0.26458332" />
    <path
       id="path4566"
       d="m 239.60225,48.795107 c -0.61796,-0.48305 -2.02898,-2.813739 -3.76565,-6.22005 -1.76959,-3.470823 -1.98025,-3.689725 -7.01077,-7.284379 -4.60394,-3.289831 -4.73459,-3.489998 -2.15773,-3.305624 6.5701,0.470089 14.92004,9.764888 13.89501,15.467383 -0.26992,1.501807 -0.44476,1.746099 -0.96086,1.34267 z"
       style="fill:#000000;stroke-width:0.26458332" />
  </g>
</svg>
